<?xml version="1.0" encoding="utf-8"?>
<!-- Generator: Adobe Illustrator 27.1.0, SVG Export Plug-In . SVG Version: 6.00 Build 0)  -->
<svg version="1.1" id="Layer_1" xmlns="http://www.w3.org/2000/svg" xmlns:xlink="http://www.w3.org/1999/xlink" x="0px" y="0px"
	 width="85px" height="51px" viewBox="0 0 50 30" enable-background="new 0 0 50 30" xml:space="preserve">
<style type="text/css">
	.st0{fill:#234A9E;}
	.st1{fill:#FFFFFF;}
</style>
<g>
	<rect y="2.5" class="st0" width="50" height="25"/>
	<g>
		<path class="st1" d="M10.8,7.1H9.3v17.2H7.7V7.1H6.2V5.7h4.5V7.1z"/>
		<path class="st1" d="M16,22.6c0,0.6-0.2,1-0.7,1.3c-0.4,0.2-0.9,0.4-1.4,0.4c-1.5,0-2.2-0.8-2.2-2.2V7.8c0-1.5,0.8-2.2,2.2-2.2
			c0.6,0,1.1,0.1,1.4,0.3c0.5,0.3,0.7,0.8,0.7,1.2v8.2h-2.8v7.1c0,0.3,0.2,0.5,0.5,0.5s0.5-0.2,0.5-0.5v-6.2H16V22.6z M14.3,14.3
			V7.2c0-0.3-0.2-0.5-0.5-0.5s-0.5,0.2-0.5,0.5v7.1H14.3z"/>
		<path class="st1" d="M21.5,22.2c0,1.4-0.7,2.2-2.1,2.2s-2.1-0.8-2.1-2.2V7.8c0-1.4,0.7-2.2,2.1-2.2s2.1,0.8,2.1,2.2v5.3h-1.7V7.6
			c0-0.4-0.2-0.7-0.5-0.7c-0.3,0-0.5,0.2-0.5,0.7v14.7c0,0.4,0.2,0.7,0.5,0.7c0.3,0,0.5-0.2,0.5-0.7v-6.4h1.7V22.2z"/>
		<path class="st1" d="M27,24.3h-1.7V16h-0.9v8.4h-1.7V5.7h1.7v8.8h0.9V5.7H27V24.3z"/>
		<path class="st1" d="M32.6,7.1h-1.4v17.2h-1.7V7.1h-1.4V5.7h4.5V7.1z"/>
		<path class="st1" d="M37.8,22.6c0,0.6-0.2,1-0.7,1.3c-0.4,0.2-0.9,0.4-1.4,0.4c-1.5,0-2.2-0.8-2.2-2.2V7.8c0-1.5,0.8-2.2,2.2-2.2
			c0.6,0,1.1,0.1,1.4,0.3c0.5,0.3,0.8,0.8,0.8,1.2v8.2h-2.7v7.1c0,0.3,0.2,0.5,0.5,0.5c0.3,0,0.5-0.2,0.5-0.5v-6.2h1.7L37.8,22.6
			L37.8,22.6z M36.2,14.3V7.2c0-0.3-0.2-0.5-0.5-0.5s-0.5,0.2-0.5,0.5v7.1H36.2z"/>
		<path class="st1" d="M43.8,24.3h-1.5l-1.1-8.4l-1.1,8.4h-1.6l1.6-9.8l-1.4-8.9h1.8l0.9,8.3l0.9-8.3h1.5l-1.2,8.9L43.8,24.3z"/>
	</g>
</g>
</svg>
